<svg width="60" height="60" viewBox="0 0 60 60" fill="none" xmlns="http://www.w3.org/2000/svg">
<g id="chat-svgrepo-com 1">
<path id="Vector" d="M6.72656 32.9238L6.67969 38.3496L15.5332 32.9238H32.6016C34.9102 32.9238 36.7793 31.0137 36.7793 28.6523V12.0703C36.7793 9.70898 34.9102 7.79883 32.6016 7.79883H6.72656C4.41797 7.79883 2.54883 9.70898 2.54883 12.0703V28.6523C2.54883 31.0137 4.41797 32.9238 6.72656 32.9238Z" fill="#FEC200"/>
<path id="Vector_2" d="M6.67969 39.2051C6.5332 39.2051 6.39258 39.1699 6.26367 39.0938C5.99414 38.9414 5.83008 38.6543 5.83008 38.3496L5.87109 33.7031C3.50391 33.2871 1.69922 31.1836 1.69922 28.6523V12.0703C1.69922 9.24609 3.95508 6.94922 6.72656 6.94922H32.5957C35.3672 6.94922 37.623 9.24609 37.623 12.0703V28.6523C37.623 31.4766 35.3672 33.7734 32.5957 33.7734H15.7734L7.125 39.0762C6.98438 39.1582 6.83203 39.2051 6.67969 39.2051ZM6.72656 8.64844C4.89258 8.64844 3.39844 10.1836 3.39844 12.0703V28.6523C3.39844 30.5391 4.89258 32.0742 6.73242 32.0742C6.96094 32.0742 7.17773 32.1621 7.33594 32.3262C7.49414 32.4844 7.58203 32.707 7.58203 32.9297L7.54688 36.8262L15.0938 32.1973C15.2285 32.1152 15.3809 32.0742 15.5391 32.0742H32.6074C34.4473 32.0742 35.9414 30.5391 35.9414 28.6523V12.0703C35.9414 10.1836 34.4473 8.64844 32.6074 8.64844H6.72656Z" fill="#717579"/>
<path id="Vector_3" d="M52.1543 45.2988L52.2188 52.1777L40.7578 45.2988H18.6562C15.668 45.2988 13.2422 42.8731 13.2422 39.8848V18.873C13.2422 15.8848 15.668 13.459 18.6562 13.459H52.1543C55.1426 13.459 57.5684 15.8848 57.5684 18.873V39.8906C57.5684 42.873 55.1484 45.2988 52.1543 45.2988Z" fill="#FAFCFC"/>
<path id="Vector_4" d="M52.2188 53.0273C52.0664 53.0273 51.9141 52.9863 51.7793 52.9043L40.5234 46.1484H18.6562C15.2051 46.1484 12.3926 43.3418 12.3926 39.8848V18.873C12.3926 15.4219 15.1992 12.6094 18.6562 12.6094H52.1543C55.6055 12.6094 58.418 15.416 58.418 18.873V39.8906C58.418 43.0547 56.0625 45.6738 53.0156 46.0957L53.0742 52.1777C53.0742 52.4824 52.916 52.7695 52.6465 52.9219C52.5117 52.9863 52.3652 53.0273 52.2188 53.0273ZM18.6562 14.3086C16.1426 14.3086 14.0918 16.3535 14.0918 18.873V39.8906C14.0918 42.4043 16.1367 44.4551 18.6562 44.4551H40.7578C40.9102 44.4551 41.0625 44.4961 41.1973 44.5781L51.3633 50.6777L51.3164 45.3164C51.3164 45.0879 51.4043 44.8711 51.5625 44.7129C51.7207 44.5547 51.9375 44.4609 52.166 44.4609C54.6797 44.4609 56.7305 42.416 56.7305 39.8965V18.873C56.7305 16.3594 54.6855 14.3086 52.166 14.3086H18.6562Z" fill="#717579"/>
<path id="Vector_5" d="M22.0312 29.2852C22.0313 29.9813 22.3232 30.649 22.843 31.1413C23.3628 31.6336 24.0677 31.9102 24.8027 31.9102C25.5378 31.9102 26.2427 31.6336 26.7625 31.1413C27.2822 30.649 27.5742 29.9813 27.5742 29.2852C27.5742 28.589 27.2822 27.9213 26.7625 27.429C26.2427 26.9367 25.5378 26.6602 24.8027 26.6602C24.0677 26.6602 23.3628 26.9367 22.843 27.429C22.3232 27.9213 22.0313 28.589 22.0312 29.2852Z" fill="#F7B64B"/>
<path id="Vector_6" d="M32.6367 29.2852C32.6367 29.9813 32.9287 30.649 33.4485 31.1413C33.9682 31.6336 34.6732 31.9102 35.4082 31.9102C36.1432 31.9102 36.8482 31.6336 37.3679 31.1413C37.8877 30.649 38.1797 29.9813 38.1797 29.2852C38.1797 28.589 37.8877 27.9213 37.3679 27.429C36.8482 26.9367 36.1432 26.6602 35.4082 26.6602C34.6732 26.6602 33.9682 26.9367 33.4485 27.429C32.9287 27.9213 32.6367 28.589 32.6367 29.2852Z" fill="#F7B64B"/>
<path id="Vector_7" d="M43.2363 29.2852C43.2363 29.9813 43.5283 30.649 44.0481 31.1413C44.5678 31.6336 45.2728 31.9102 46.0078 31.9102C46.7429 31.9102 47.4478 31.6336 47.9675 31.1413C48.4873 30.649 48.7793 29.9813 48.7793 29.2852C48.7793 28.589 48.4873 27.9213 47.9675 27.429C47.4478 26.9367 46.7429 26.6602 46.0078 26.6602C45.2728 26.6602 44.5678 26.9367 44.0481 27.429C43.5283 27.9213 43.2363 28.589 43.2363 29.2852Z" fill="#F7B64B"/>
</g>
</svg>
