<svg width="24" height="24" viewBox="0 0 24 24" fill="none" xmlns="http://www.w3.org/2000/svg">
<g id="correct-success-tick-svgrepo-com 1" clip-path="url(#clip0_493_561)">
<g id="Page-1">
<g id="correct">
<path id="Shape" d="M7.07701 11.3026C6.74881 10.9744 6.21547 10.9744 5.88727 11.3026C5.55906 11.6308 5.55906 12.1641 5.88727 12.4923L9.76419 16.3693C9.92829 16.5334 10.1334 16.6154 10.3591 16.6154C10.3796 16.6154 10.3796 16.6154 10.4001 16.6154C10.6257 16.5949 10.8514 16.4923 11.0155 16.3077L20.718 4.67696C21.0052 4.32824 20.9642 3.7949 20.6155 3.48721C20.2668 3.20003 19.7334 3.24106 19.4257 3.58978L10.2975 14.5231L7.07701 11.3026Z" fill="#7ED19F"/>
<path id="Shape_2" d="M18.2769 1.90775C13.559 -1.0461 7.50767 -0.348665 3.56921 3.5898C-1.06669 8.22569 -1.06669 15.7949 3.56921 20.4308C5.88716 22.7488 8.94357 23.918 11.9795 23.918C15.0154 23.918 18.0718 22.7488 20.3897 20.4308C24.3487 16.4718 25.0256 10.4001 22.0513 5.6821C21.8051 5.29236 21.2923 5.16928 20.9025 5.41544C20.5128 5.66159 20.3897 6.17441 20.6359 6.56416C23.2 10.6257 22.6051 15.836 19.2 19.2411C15.2205 23.2206 8.71793 23.2206 4.73844 19.2411C0.758952 15.2616 0.758952 8.75903 4.73844 4.77954C8.14357 1.39492 13.3333 0.800053 17.3949 3.32313C17.7846 3.56928 18.2974 3.44621 18.5436 3.05646C18.7897 2.66672 18.6666 2.1539 18.2769 1.90775Z" fill="#202224"/>
</g>
</g>
</g>
<defs>
<clipPath id="clip0_493_561">
<rect width="24" height="24" fill="white"/>
</clipPath>
</defs>
</svg>
