<svg width="20" height="20" viewBox="0 0 20 20" fill="none" xmlns="http://www.w3.org/2000/svg">
<g id="csv-document-svgrepo-com 1">
<path id="Vector" fill-rule="evenodd" clip-rule="evenodd" d="M2.84703 0C1.97141 0 1.26172 0.71 1.26172 1.58563V18.4109C1.26172 19.2869 1.97141 19.9966 2.84703 19.9966H17.1514C18.0267 19.9966 18.737 19.2869 18.737 18.4109V6.34688L12.8298 0L2.84703 0Z" fill="#45B058"/>
<path id="Vector_2" d="M7.59484 13.499C7.63422 13.544 7.65672 13.6003 7.65672 13.6622C7.65672 13.7803 7.56109 13.8872 7.43703 13.8872C7.38078 13.8872 7.31891 13.8647 7.27953 13.814C7.06016 13.5497 6.68859 13.3806 6.33984 13.3806C5.51828 13.3806 4.89391 14.0109 4.89391 14.9056C4.89391 15.7947 5.51859 16.4303 6.33984 16.4303C6.69422 16.4303 7.04297 16.2784 7.27953 16.0025C7.31859 15.9575 7.38078 15.9297 7.43703 15.9297C7.56672 15.9297 7.65672 16.0419 7.65672 16.1603C7.65672 16.2165 7.63422 16.2728 7.59484 16.3178C7.30203 16.6215 6.90266 16.8469 6.34016 16.8469C5.25984 16.8469 4.41016 16.059 4.41016 14.9056C4.41016 13.7522 5.25984 12.9644 6.34016 12.9644C6.90266 12.9647 7.30766 13.1897 7.59484 13.499ZM9.72047 16.8472C9.16359 16.8472 8.72453 16.6615 8.40391 16.38C8.35328 16.335 8.33078 16.2731 8.33078 16.2112C8.33078 16.0984 8.41516 15.9747 8.55016 15.9747C8.59516 15.9747 8.64578 15.9859 8.68516 16.0197C8.94391 16.2506 9.30391 16.4303 9.73734 16.4303C10.407 16.4303 10.6208 16.0703 10.6208 15.7831C10.6208 14.8153 8.39828 15.35 8.39828 14.0106C8.39828 13.3919 8.94953 12.9697 9.68672 12.9697C10.1705 12.9697 10.587 13.1156 10.8908 13.369C10.9414 13.414 10.9695 13.4759 10.9695 13.5378C10.9695 13.6503 10.8739 13.7628 10.7498 13.7628C10.7048 13.7628 10.6542 13.7459 10.6148 13.7122C10.3392 13.4872 9.99609 13.3859 9.65266 13.3859C9.20266 13.3859 8.88172 13.6278 8.88172 13.9825C8.88172 14.8265 11.1042 14.3425 11.1042 15.7437C11.1045 16.29 10.7333 16.8472 9.72047 16.8472ZM15.0311 13.3303L13.7314 16.56C13.6695 16.7119 13.5173 16.8131 13.3602 16.8131H13.3489C13.1858 16.8131 13.0339 16.7119 12.9717 16.56L11.6773 13.3303C11.6661 13.3022 11.6605 13.274 11.6605 13.2403C11.6605 13.1278 11.7614 12.9925 11.9136 12.9925C12.0092 12.9925 12.0992 13.0487 12.1386 13.1444L13.3539 16.2669L14.5692 13.1444C14.603 13.0544 14.693 12.9925 14.7942 12.9925C14.9405 12.9925 15.0473 13.1106 15.0473 13.2403C15.0477 13.2684 15.042 13.3022 15.0311 13.3303Z" fill="white"/>
<g id="Group">
<path id="Vector_3" fill-rule="evenodd" clip-rule="evenodd" d="M18.7522 6.36156V6.67406H14.7522C14.7522 6.67406 12.7797 6.28031 12.8372 4.57812C12.8372 4.57812 12.9022 6.36156 14.7131 6.36156H18.7522Z" fill="#349C42"/>
<path id="Vector_4" opacity="0.5" fill-rule="evenodd" clip-rule="evenodd" d="M12.8438 0.00195312V4.55227C12.8438 5.06977 13.1888 6.36195 14.7513 6.36195H18.7512L12.8438 0.00195312Z" fill="white"/>
</g>
</g>
</svg>
