<svg width="20" height="20" viewBox="0 0 20 20" fill="none" xmlns="http://www.w3.org/2000/svg">
<g id="word-document-svgrepo-com 1" clip-path="url(#clip0_395_524)">
<g id="Group">
<path id="Vector" fill-rule="evenodd" clip-rule="evenodd" d="M2.84695 5.05715e-05C2.42835 -0.00329181 2.02544 0.159164 1.72624 0.45193C1.42703 0.744696 1.25584 1.14398 1.25008 1.56255V18.4001C1.248 18.6105 1.28786 18.8192 1.36733 19.0141C1.4468 19.2089 1.5643 19.386 1.71296 19.535C1.86162 19.6839 2.03846 19.8017 2.23316 19.8816C2.42786 19.9615 2.63652 20.0017 2.84695 20H17.1532C17.3636 20.0017 17.5723 19.9615 17.767 19.8816C17.9617 19.8017 18.1385 19.6839 18.2872 19.535C18.4359 19.386 18.5534 19.2089 18.6328 19.0141C18.7123 18.8192 18.7522 18.6105 18.7501 18.4001V6.33755L12.8313 5.05715e-05H2.84695Z" fill="#107CAD"/>
<path id="Vector_2" fill-rule="evenodd" clip-rule="evenodd" d="M18.7512 6.35933V6.67183H14.7449C14.7449 6.67183 12.7731 6.27808 12.8293 4.57495C12.8293 4.57495 12.8949 6.35933 14.7043 6.35933H18.7512Z" fill="#084968"/>
<path id="Vector_3" opacity="0.5" fill-rule="evenodd" clip-rule="evenodd" d="M12.8359 0V4.55C12.8351 4.7964 12.8847 5.04036 12.9817 5.26687C13.0786 5.49339 13.2209 5.69767 13.3998 5.86715C13.5786 6.03664 13.7903 6.16774 14.0217 6.25238C14.2531 6.33703 14.4993 6.37344 14.7453 6.35938H18.7516L12.8359 0Z" fill="#90D0FE"/>
</g>
<path id="Vector_4" d="M5.70078 16.8312H4.76328C4.67377 16.8312 4.58793 16.7956 4.52463 16.7323C4.46134 16.669 4.42578 16.5832 4.42578 16.4937V13.4156C4.42578 13.326 4.46134 13.2402 4.52463 13.1769C4.58793 13.1136 4.67377 13.0781 4.76328 13.0781H5.70078C6.19806 13.0781 6.67498 13.2756 7.02661 13.6272C7.37824 13.9789 7.57578 14.4558 7.57578 14.9531C7.57578 15.4503 7.37824 15.9273 7.02661 16.2789C6.67498 16.6305 6.19806 16.8281 5.70078 16.8281V16.8312ZM5.70078 13.4968H4.88516V16.4156H5.70078C5.89371 16.4246 6.0864 16.3931 6.26635 16.3229C6.44629 16.2527 6.60947 16.1455 6.74531 16.0082C6.88115 15.8709 6.9866 15.7065 7.05484 15.5258C7.12308 15.3451 7.15257 15.1521 7.14141 14.9593C7.155 14.7656 7.12723 14.5713 7.05994 14.3891C6.99265 14.207 6.88739 14.0413 6.75113 13.903C6.61488 13.7646 6.45075 13.6569 6.26966 13.5869C6.08857 13.5168 5.89465 13.4861 5.70078 13.4968ZM10.207 16.8999C9.95341 16.9065 9.70119 16.8602 9.46638 16.7641C9.23158 16.668 9.0193 16.5242 8.84301 16.3417C8.66672 16.1593 8.53027 15.9422 8.44231 15.7042C8.35435 15.4662 8.31679 15.2126 8.33203 14.9593C8.30154 14.6966 8.32698 14.4304 8.40666 14.1782C8.48634 13.9261 8.61847 13.6936 8.79437 13.4961C8.97027 13.2986 9.18596 13.1406 9.42727 13.0323C9.66858 12.9241 9.93006 12.8682 10.1945 12.8682C10.459 12.8682 10.7205 12.9241 10.9618 13.0323C11.2031 13.1406 11.4188 13.2986 11.5947 13.4961C11.7706 13.6936 11.9027 13.9261 11.9824 14.1782C12.0621 14.4304 12.0875 14.6966 12.057 14.9593C12.0716 15.2103 12.0344 15.4616 11.9478 15.6977C11.8612 15.9337 11.727 16.1494 11.5535 16.3314C11.38 16.5134 11.1709 16.6577 10.9393 16.7555C10.7077 16.8534 10.4584 16.9025 10.207 16.8999ZM10.207 13.4343C9.36328 13.4343 8.82891 14.0812 8.82891 14.9593C8.82891 15.8374 9.36328 16.4843 10.207 16.4843C11.0508 16.4843 11.5852 15.8312 11.5852 14.9593C11.5852 14.0874 11.0477 13.4374 10.207 13.4374V13.4343ZM15.9727 13.5531C16.0136 13.5972 16.036 13.6554 16.0352 13.7156C16.0356 13.7447 16.0302 13.7736 16.0195 13.8007C16.0087 13.8278 15.9927 13.8525 15.9724 13.8734C15.9521 13.8943 15.9278 13.911 15.9011 13.9225C15.8743 13.934 15.8455 13.9402 15.8164 13.9406C15.7859 13.9411 15.7556 13.9345 15.728 13.9215C15.7004 13.9085 15.6761 13.8894 15.657 13.8656C15.5397 13.732 15.3956 13.6246 15.2341 13.5503C15.0726 13.476 14.8973 13.4365 14.7195 13.4343C14.5225 13.4331 14.3273 13.4724 14.1461 13.5496C13.9648 13.6268 13.8013 13.7404 13.6657 13.8834C13.5301 14.0263 13.4253 14.1955 13.3576 14.3806C13.29 14.5657 13.2611 14.7626 13.2727 14.9593C13.262 15.1558 13.2916 15.3524 13.3595 15.537C13.4275 15.7217 13.5324 15.8906 13.6678 16.0333C13.8032 16.176 13.9663 16.2897 14.1472 16.3672C14.328 16.4447 14.5228 16.4846 14.7195 16.4843C14.8973 16.4837 15.0728 16.4452 15.2345 16.3714C15.3961 16.2975 15.5402 16.1901 15.657 16.0562C15.6769 16.0333 15.7014 16.0148 15.7288 16.0019C15.7563 15.989 15.7861 15.982 15.8164 15.9812C15.846 15.982 15.8751 15.9886 15.902 16.0007C15.929 16.0127 15.9534 16.03 15.9737 16.0515C15.994 16.073 16.0099 16.0982 16.0204 16.1258C16.031 16.1535 16.036 16.1829 16.0352 16.2124C16.0343 16.2714 16.0121 16.328 15.9727 16.3718C15.813 16.5426 15.6192 16.6779 15.4039 16.7689C15.1885 16.8599 14.9564 16.9046 14.7227 16.8999C14.221 16.8798 13.7467 16.6664 13.3989 16.3044C13.0511 15.9423 12.8568 15.4598 12.8568 14.9577C12.8568 14.4557 13.0511 13.9732 13.3989 13.6111C13.7467 13.2491 14.221 13.0357 14.7227 13.0156C14.9573 13.0107 15.1903 13.0562 15.4059 13.1489C15.6215 13.2416 15.8148 13.3794 15.9727 13.5531Z" fill="white"/>
</g>
<defs>
<clipPath id="clip0_395_524">
<rect width="20" height="20" fill="white"/>
</clipPath>
</defs>
</svg>
