<svg width="70" height="70" viewBox="0 0 70 70" fill="none" xmlns="http://www.w3.org/2000/svg">
<g id="insert-word-svgrepo-com 1">
<path id="Vector" d="M15.5654 12.332H46.6826V13.8906H15.5654V12.332Z" fill="#717579"/>
<path id="Vector_2" d="M45.5273 13.4395L46.6895 12.332L56.0137 23.2285L54.8516 24.3359L45.5273 13.4395ZM15.5654 13.8906H17.124V54.3457H15.5654V13.8906Z" fill="#717579"/>
<path id="Vector_3" d="M17.124 13.8906V54.5439H54.4619V24.835H45.1309V13.8906H17.124Z" fill="white"/>
<path id="Vector_4" d="M54.4619 23.2217H56.0205V54.3389H54.4619V23.2217ZM15.5654 54.3389H56.0205V55.8975H15.5654V54.3389Z" fill="#717579"/>
<path id="Vector_5" d="M34.2344 29.4492H48.2344V31.0078H34.2344V29.4492ZM23.3447 35.6699H48.2412V37.2285H23.3447V35.6699ZM23.3447 41.8975H48.2412V43.4561H23.3447V41.8975ZM23.3447 48.1182H48.2412V49.6768H23.3447V48.1182Z" fill="#FEC200"/>
<path id="Vector_6" d="M45.1309 13.8906H46.6895V24.7803H45.1309V13.8906Z" fill="#717579"/>
<path id="Vector_7" d="M46.6826 23.2217H54.4619V24.7803H46.6826V23.2217ZM30.2354 18.9561H31.2812L30.0781 23.7686L28.5195 17.001H26.0176L24.2061 23.7686L22.8457 17.001H20.2344L22.8867 27.8906H25.4434L27.2344 21.4512L28.834 27.8906H31.1924L34.2344 17.001H30.2285V18.9561H30.2354Z" fill="#717579"/>
</g>
</svg>
