<svg width="20" height="20" viewBox="0 0 20 20" fill="none" xmlns="http://www.w3.org/2000/svg">
<g id="pdf-file-svgrepo-com 1">
<g id="Group">
<path id="Vector" d="M18.572 4.60246V19.9999H1.86719V0H13.9696L16.1133 2.14371L18.572 4.60246Z" fill="#B12A27"/>
<path id="Vector_2" d="M9.44129 1.3396H1.42969V4.92429H9.44129V1.3396Z" fill="#F2F2F2"/>
<g id="Group_2">
<g id="Group_3">
<path id="Vector_3" d="M4.30395 2.51513C4.26859 2.42974 4.22148 2.35317 4.15672 2.28841C4.09195 2.22364 4.01242 2.17063 3.92113 2.13528C3.82691 2.097 3.7209 2.07935 3.60312 2.07935H2.72266V4.35259H3.1673V3.49567H3.60312C3.7209 3.49567 3.82691 3.47802 3.92113 3.43974C4.01242 3.40438 4.09191 3.35142 4.15672 3.28661C4.22152 3.22185 4.26863 3.14821 4.30395 3.05989C4.33633 2.9745 4.35402 2.88321 4.35402 2.78899C4.35398 2.69181 4.33633 2.60052 4.30395 2.51513ZM3.82395 3.01274C3.76504 3.06868 3.68262 3.09813 3.5825 3.09813H3.1673V2.47388H3.5825C3.68262 2.47388 3.76508 2.50333 3.82395 2.5622C3.87988 2.61813 3.90934 2.6947 3.90934 2.78892C3.90937 2.88024 3.87992 2.95681 3.82395 3.01274Z" fill="#B12A27"/>
<path id="Vector_4" d="M6.43121 2.95953C6.42828 2.88004 6.42531 2.80938 6.41648 2.74457C6.40766 2.67977 6.39293 2.6209 6.3723 2.56496C6.35168 2.51195 6.3252 2.45895 6.28984 2.41184C6.21035 2.29699 6.11316 2.2116 6.00422 2.15859C5.8923 2.10559 5.7598 2.0791 5.60375 2.0791H4.78516V4.35234H5.60375C5.7598 4.35234 5.8923 4.32586 6.00422 4.27285C6.11316 4.21984 6.21035 4.13445 6.28984 4.01961C6.3252 3.9725 6.35168 3.91949 6.3723 3.86648C6.39293 3.81055 6.40766 3.75164 6.41648 3.68687C6.42531 3.62211 6.42824 3.55141 6.43121 3.47191C6.43414 3.39535 6.43414 3.30996 6.43414 3.21574C6.43414 3.12152 6.43414 3.03609 6.43121 2.95953ZM5.98656 3.44543C5.98656 3.51316 5.98066 3.56617 5.97477 3.61328C5.96887 3.65746 5.96004 3.69867 5.94828 3.72812C5.93652 3.76051 5.91883 3.78996 5.89824 3.81645C5.82461 3.91066 5.71273 3.95484 5.56551 3.95484H5.22688V2.47367H5.56551C5.71273 2.47367 5.82465 2.52078 5.89824 2.615C5.91887 2.64148 5.93652 2.66801 5.94828 2.70039C5.96004 2.73277 5.96891 2.77105 5.97477 2.81816C5.98066 2.86234 5.98656 2.91828 5.98656 2.98305C5.98949 3.04785 5.98949 3.12734 5.98949 3.21566C5.98953 3.30406 5.98953 3.38062 5.98656 3.44543Z" fill="#B12A27"/>
<path id="Vector_5" d="M8.33086 2.47367V2.0791H6.83203V4.35234H7.27668V3.4307H8.1748V3.03316H7.27668V2.47367H8.33086Z" fill="#B12A27"/>
</g>
<g id="Group_4">
<path id="Vector_6" d="M4.30395 2.51513C4.26859 2.42974 4.22148 2.35317 4.15672 2.28841C4.09195 2.22364 4.01242 2.17063 3.92113 2.13528C3.82691 2.097 3.7209 2.07935 3.60312 2.07935H2.72266V4.35259H3.1673V3.49567H3.60312C3.7209 3.49567 3.82691 3.47802 3.92113 3.43974C4.01242 3.40438 4.09191 3.35142 4.15672 3.28661C4.22152 3.22185 4.26863 3.14821 4.30395 3.05989C4.33633 2.9745 4.35402 2.88321 4.35402 2.78899C4.35398 2.69181 4.33633 2.60052 4.30395 2.51513ZM3.82395 3.01274C3.76504 3.06868 3.68262 3.09813 3.5825 3.09813H3.1673V2.47388H3.5825C3.68262 2.47388 3.76508 2.50333 3.82395 2.5622C3.87988 2.61813 3.90934 2.6947 3.90934 2.78892C3.90937 2.88024 3.87992 2.95681 3.82395 3.01274Z" fill="#B12A27"/>
</g>
</g>
<path id="Vector_7" opacity="0.08" d="M18.572 4.60255V20H1.86719V16.3899L9.67633 8.58075L10.1386 8.11845L10.3948 7.86224L10.8218 7.43528L11.3283 6.9288L16.1133 2.1438L18.572 4.60255Z" fill="#040000"/>
<path id="Vector_8" d="M18.5717 4.60297H13.9688V0L18.5717 4.60297Z" fill="#771B1B"/>
<g id="Group_5">
<path id="Vector_9" d="M16.1894 14.4789C16.0922 14.3081 15.9597 14.1462 15.7949 13.999C15.6594 13.8753 15.5004 13.7604 15.3208 13.6544C14.5964 13.2275 13.5628 13.0213 12.1582 13.0213H12.0169C11.9403 12.9507 11.8608 12.88 11.7784 12.8064C11.2454 12.3264 10.8214 11.8052 10.4916 11.2251C11.1394 9.79696 11.4486 8.52489 11.4103 7.44126C11.4044 7.25868 11.3779 7.0879 11.3308 6.92888C11.2601 6.6727 11.1424 6.44595 10.9774 6.26044C10.9745 6.25751 10.9745 6.25751 10.9715 6.25454C10.7095 5.96009 10.3444 5.79224 9.9733 5.79224C9.59931 5.79224 9.25482 5.95419 9.00451 6.25161C8.75716 6.54606 8.62466 6.9495 8.61877 7.42356C8.60994 8.14794 8.66881 8.83403 8.79252 9.46712C8.80427 9.5172 8.81314 9.56724 8.8249 9.61727C8.94857 10.1915 9.13115 10.7362 9.3667 11.2427C9.0899 11.8051 8.81017 12.291 8.6158 12.6208C8.46857 12.8711 8.30662 13.1332 8.13877 13.3952C7.38201 13.5307 6.74005 13.6956 6.1806 13.9017C5.42384 14.1756 4.81724 14.5289 4.38142 14.95C4.09873 15.2209 3.90732 15.5095 3.8131 15.8099C3.71298 16.119 3.71888 16.4282 3.83076 16.705C3.93381 16.9612 4.11931 17.1761 4.3667 17.3234C4.4256 17.3587 4.48744 17.3881 4.5522 17.4147C4.74068 17.4912 4.94677 17.5324 5.16173 17.5324C5.65939 17.5324 6.17173 17.3175 6.60459 16.9317C7.41142 16.2103 8.24474 15.0501 8.7365 14.3169C9.1399 14.255 9.57865 14.202 10.0734 14.149C10.6564 14.0901 11.1717 14.0548 11.6399 14.0371C11.7842 14.1667 11.9226 14.2904 12.0551 14.4081C12.7913 15.0648 13.3508 15.5389 13.8572 15.8716C13.8572 15.8745 13.8602 15.8745 13.8631 15.8745C14.0634 16.007 14.2548 16.116 14.4462 16.2043C14.6611 16.3045 14.879 16.3575 15.1028 16.3575C15.3855 16.3575 15.6505 16.2721 15.8714 16.116C16.0952 15.9541 16.2571 15.7215 16.3308 15.4594C16.4161 15.1444 16.3661 14.794 16.1894 14.4789ZM9.67884 8.58083C9.63763 8.21567 9.61994 7.83583 9.62584 7.43536C9.63173 7.05552 9.77013 6.79931 9.9733 6.79931C10.1264 6.79931 10.2884 6.9377 10.362 7.2027C10.3826 7.2822 10.3973 7.37349 10.4003 7.47653C10.4061 7.6002 10.4032 7.72978 10.3973 7.86228C10.3797 8.23626 10.3149 8.63376 10.203 9.06075C10.1352 9.33462 10.0469 9.62024 9.93798 9.91763C9.81431 9.49954 9.72595 9.05489 9.67884 8.58083ZM4.7672 16.3311C4.71713 16.2074 4.7731 15.9689 5.07935 15.6744C5.54755 15.2268 6.28076 14.8735 7.30255 14.6055C7.10822 14.8705 6.91681 15.112 6.73131 15.3328C6.44861 15.6744 6.17771 15.963 5.9333 16.1809C5.72423 16.3693 5.49455 16.4871 5.27666 16.5166C5.23838 16.5225 5.20009 16.5254 5.16181 16.5254C4.97037 16.5254 4.81431 16.4489 4.7672 16.3311ZM9.47271 13.2009L9.49334 13.1686L9.46095 13.1745C9.46685 13.1597 9.47568 13.145 9.48451 13.1333C9.60818 12.9242 9.76424 12.6562 9.93209 12.347L9.94681 12.3794L9.98509 12.2999C10.1088 12.4766 10.2442 12.6504 10.3856 12.8182C10.4533 12.8977 10.524 12.9742 10.5946 13.0508L10.5475 13.0537L10.5887 13.092C10.468 13.1008 10.3414 13.1126 10.2147 13.1244C10.1353 13.1332 10.0528 13.1391 9.97033 13.1479C9.79959 13.1656 9.63173 13.1833 9.47271 13.2009ZM14.4285 15.0384C14.0781 14.8146 13.6865 14.4995 13.2036 14.0784C13.8897 14.1491 14.4285 14.2993 14.8113 14.5231C14.9792 14.6202 15.1058 14.7204 15.1912 14.8175C15.3325 14.9677 15.3826 15.1031 15.3561 15.1944C15.3325 15.2857 15.2295 15.3475 15.1028 15.3475C15.0292 15.3475 14.9527 15.3299 14.8731 15.2916C14.7377 15.2268 14.5963 15.1473 14.4462 15.0502C14.4403 15.0502 14.4344 15.0443 14.4285 15.0384Z" fill="#F2F2F2"/>
</g>
</g>
</g>
</svg>
