<svg width="40" height="40" viewBox="0 0 40 40" fill="none" xmlns="http://www.w3.org/2000/svg">
<g id="speech-to-text-svgrepo-com 1" clip-path="url(#clip0_76_977)">
<g id="Product Icons">
<g id="colored-32/speech">
<path id="Vector" d="M21.6663 3.33337H18.333V36.6667H21.6663V3.33337Z" fill="#4285F4"/>
<g id="Group">
<path id="Rectangle-path" d="M15.0003 13.3334H11.667V26.6667H15.0003V13.3334Z" fill="#4285F4"/>
<path id="Rectangle-path_2" d="M28.3333 13.3334H25V26.6667H28.3333V13.3334Z" fill="#4285F4"/>
<path id="Rectangle-path_3" d="M8.33333 8.33337H5V31.6667H8.33333V8.33337Z" fill="#4285F4"/>
<path id="Rectangle-path_4" d="M35.0003 8.33337H31.667V31.6667H35.0003V8.33337Z" fill="#4285F4"/>
<path id="Rectangle-path_5" d="M21.6663 3.33337H18.333V20H21.6663V3.33337Z" fill="#669DF6"/>
<path id="Rectangle-path_6" d="M15.0003 13.3334H11.667V20H15.0003V13.3334Z" fill="#669DF6"/>
<path id="Rectangle-path_7" d="M28.3333 13.3334H25V20H28.3333V13.3334Z" fill="#669DF6"/>
<path id="Rectangle-path_8" d="M8.33333 8.33337H5V20H8.33333V8.33337Z" fill="#669DF6"/>
<path id="Rectangle-path_9" d="M35.0003 8.33337H31.667V20H35.0003V8.33337Z" fill="#669DF6"/>
</g>
</g>
</g>
</g>
<defs>
<clipPath id="clip0_76_977">
<rect width="40" height="40" fill="white"/>
</clipPath>
</defs>
</svg>
